<?xml version="1.0" standalone="no"?><!-- Generator: Gravit.io --><svg xmlns="http://www.w3.org/2000/svg" xmlns:xlink="http://www.w3.org/1999/xlink" style="isolation:isolate" viewBox="0 0 450 450" width="450" height="450"><defs><clipPath id="_clipPath_sqw8sD3hp8F85bQUW9ZOX5rHTeD9S75T"><rect width="450" height="450"/></clipPath></defs><g clip-path="url(#_clipPath_sqw8sD3hp8F85bQUW9ZOX5rHTeD9S75T)"><g id="Group"><line x1="402.183" y1="239.125" x2="402.183" y2="140.242" vector-effect="non-scaling-stroke" stroke-width="20.817" stroke="rgb(116,150,196)" stroke-linejoin="miter" stroke-linecap="butt" stroke-miterlimit="10"/><line x1="48.288" y1="239.125" x2="48.288" y2="140.242" vector-effect="non-scaling-stroke" stroke-width="20.817" stroke="rgb(116,150,196)" stroke-linejoin="miter" stroke-linecap="butt" stroke-miterlimit="10"/><path d=" M 188.805 251.022 L 188.805 152.139 C 188.805 96.578 214.962 51.748 225.246 36.26 C 235.55 51.685 261.666 96.286 261.666 152.139 L 261.666 251.022 L 188.805 251.022 Z " fill="rgb(139,183,240)"/><path d=" M 225.277 45.94 C 236.831 64.904 256.461 104.187 256.461 152.139 L 256.461 245.817 L 194.009 245.817 L 194.009 152.139 C 194.009 104.593 213.723 65.04 225.277 45.94 Z  M 225.235 27.235 C 225.235 27.235 183.601 80.58 183.601 152.139 L 183.601 256.226 L 266.87 256.226 L 266.87 152.139 C 266.87 80.153 225.235 27.235 225.235 27.235 Z " fill="rgb(78,122,181)"/><rect x="272.074" y="357.336" width="41.635" height="60.225" transform="matrix(1,0,0,1,0,0)" fill="rgb(220,213,242)"/><path d=" M 308.505 362.54 L 308.505 412.356 L 277.279 412.356 L 277.279 362.54 L 308.505 362.54 Z  M 318.913 352.131 L 266.87 352.131 L 266.87 422.765 L 318.913 422.765 L 318.913 352.131 Z " fill="rgb(139,117,161)"/><rect x="136.762" y="357.336" width="41.635" height="60.225" transform="matrix(1,0,0,1,0,0)" fill="rgb(220,213,242)"/><path d=" M 173.192 362.54 L 173.192 412.356 L 141.966 412.356 L 141.966 362.54 L 173.192 362.54 Z  M 183.601 352.131 L 131.557 352.131 L 131.557 422.765 L 183.601 422.765 L 183.601 352.131 Z " fill="rgb(139,117,161)"/><path d=" M 63.901 346.292 L 63.901 271.839 L 386.57 271.839 L 386.57 346.292 L 225.235 406.798 L 63.901 346.292 Z " fill="rgb(139,183,240)"/><path d=" M 381.365 277.043 L 381.365 342.691 L 225.235 401.24 L 69.105 342.691 L 69.105 277.043 L 381.365 277.043 Z  M 391.774 266.635 L 58.697 266.635 L 58.697 349.904 L 225.235 412.356 L 391.774 349.904 L 391.774 266.635 Z " fill="rgb(78,122,181)"/><path d=" M 402.183 375.926 C 393.575 375.926 386.57 368.921 386.57 360.313 L 386.57 230.204 L 417.796 230.204 L 417.796 360.313 C 417.796 368.921 410.791 375.926 402.183 375.926 Z " fill="rgb(194,232,255)"/><path d=" M 412.591 235.409 L 412.591 360.313 C 412.591 366.048 407.918 370.721 402.183 370.721 C 396.447 370.721 391.774 366.048 391.774 360.313 L 391.774 235.409 L 412.591 235.409 Z  M 423 225 L 381.365 225 L 381.365 360.313 C 381.365 371.81 390.686 381.13 402.183 381.13 C 413.68 381.13 423 371.81 423 360.313 L 423 225 Z " fill="rgb(116,150,196)"/><path d=" M 386.57 131.322 C 386.57 122.705 393.566 115.709 402.183 115.709 C 410.8 115.709 417.796 122.705 417.796 131.322 C 417.796 139.939 410.8 146.935 402.183 146.935 C 393.566 146.935 386.57 139.939 386.57 131.322 Z " fill="rgb(247,143,143)"/><path d=" M 402.183 120.913 C 407.918 120.913 412.591 125.587 412.591 131.322 C 412.591 137.057 407.918 141.731 402.183 141.731 C 396.447 141.731 391.774 137.057 391.774 131.322 C 391.774 125.587 396.447 120.913 402.183 120.913 Z  M 402.183 110.505 C 394.636 110.334 387.589 114.262 383.764 120.769 C 379.94 127.277 379.938 135.345 383.759 141.855 C 387.58 148.365 394.626 152.296 402.172 152.129 C 413.485 151.879 422.527 142.638 422.529 131.322 C 422.532 120.006 413.496 110.76 402.183 110.505 Z " fill="rgb(199,67,67)"/><path d=" M 48.288 375.926 C 39.68 375.926 32.675 368.921 32.675 360.313 L 32.675 230.204 L 63.901 230.204 L 63.901 360.313 C 63.901 368.921 56.896 375.926 48.288 375.926 Z " fill="rgb(194,232,255)"/><path d=" M 58.697 235.409 L 58.697 360.313 C 58.697 366.048 54.023 370.721 48.288 370.721 C 42.553 370.721 37.879 366.048 37.879 360.313 L 37.879 235.409 L 58.697 235.409 Z  M 69.105 225 L 27.471 225 L 27.471 360.313 C 27.471 371.81 36.791 381.13 48.288 381.13 C 59.785 381.13 69.105 371.81 69.105 360.313 L 69.105 225 Z " fill="rgb(116,150,196)"/><path d=" M 32.675 131.322 C 32.675 122.705 39.671 115.709 48.288 115.709 C 56.905 115.709 63.901 122.705 63.901 131.322 C 63.901 139.939 56.905 146.935 48.288 146.935 C 39.671 146.935 32.675 139.939 32.675 131.322 Z " fill="rgb(247,143,143)"/><path d=" M 48.288 120.913 C 54.023 120.913 58.697 125.587 58.697 131.322 C 58.697 137.057 54.023 141.731 48.288 141.731 C 42.553 141.731 37.879 137.057 37.879 131.322 C 37.879 125.587 42.553 120.913 48.288 120.913 Z  M 48.288 110.505 C 40.742 110.334 33.694 114.262 29.87 120.769 C 26.045 127.277 26.043 135.345 29.864 141.855 C 33.686 148.365 40.731 152.296 48.278 152.129 C 59.591 151.879 68.632 142.638 68.635 131.322 C 68.637 120.006 59.601 110.76 48.288 110.505 Z " fill="rgb(199,67,67)"/><path d=" M 225.235 375.926 C 187.889 375.88 157.625 345.616 157.579 308.269 L 157.579 277.043 C 157.579 262.69 169.247 251.022 183.601 251.022 L 266.87 251.022 C 281.224 251.022 292.892 262.69 292.892 277.043 L 292.892 308.269 C 292.892 345.574 262.54 375.926 225.235 375.926 Z " fill="rgb(194,232,255)"/><path d=" M 266.87 256.226 C 278.351 256.226 287.687 265.563 287.687 277.043 L 287.687 308.269 C 287.687 342.701 259.667 370.721 225.235 370.721 C 190.803 370.721 162.783 342.701 162.783 308.269 L 162.783 277.043 C 162.783 265.563 172.12 256.226 183.601 256.226 L 266.87 256.226 Z  M 266.87 245.817 L 183.601 245.817 C 166.355 245.817 152.375 259.798 152.375 277.043 L 152.375 308.269 C 152.375 348.509 184.995 381.13 225.235 381.13 C 265.475 381.13 298.096 348.509 298.096 308.269 L 298.096 277.043 C 298.096 259.798 284.116 245.817 266.87 245.817 Z " fill="rgb(78,122,181)"/><path d=" M 188.805 251.022 L 188.805 245.817 C 188.805 225.729 205.147 209.387 225.235 209.387 C 245.324 209.387 261.666 225.729 261.666 245.817 L 261.666 251.022 L 188.805 251.022 Z " fill="rgb(194,232,255)"/><path d=" M 225.235 214.591 C 242.451 214.591 256.461 228.601 256.461 245.817 L 194.009 245.817 C 194.009 228.601 208.019 214.591 225.235 214.591 Z  M 225.235 204.183 C 202.241 204.183 183.601 222.823 183.601 245.817 L 183.601 256.226 L 266.87 256.226 L 266.87 245.817 C 266.87 222.823 248.23 204.183 225.235 204.183 Z " fill="rgb(78,122,181)"/></g></g></svg>